<?xml version="1.0" standalone="no"?>
<!DOCTYPE svg PUBLIC "-//W3C//DTD SVG 20010904//EN"
 "http://www.w3.org/TR/2001/REC-SVG-20010904/DTD/svg10.dtd">
<svg version="1.0" xmlns="http://www.w3.org/2000/svg"
 width="6001.000000pt" height="4001.000000pt" viewBox="0 0 6001.000000 4001.000000"
 preserveAspectRatio="xMidYMid meet">

<g transform="translate(0.000000,4001.000000) scale(0.100000,-0.100000)"
fill="#000000" stroke="none">
<path d="M59955 26488 c-279 -401 -691 -921 -1044 -1318 -212 -239 -270 -300
-596 -626 -236 -236 -324 -320 -570 -545 -27 -25 -104 -92 -170 -149 -66 -57
-131 -114 -145 -128 -14 -14 -48 -42 -76 -63 -28 -20 -57 -43 -65 -51 -8 -7
-39 -33 -69 -58 -30 -24 -62 -50 -70 -56 -8 -7 -28 -24 -43 -38 -15 -14 -31
-26 -35 -26 -12 -1 -58 -45 -65 -64 -4 -9 -12 -14 -17 -11 -14 9 -42 -14 -33
-28 3 -5 1 -7 -4 -4 -6 4 -21 -2 -34 -13 -13 -11 -29 -24 -35 -28 -5 -5 -20
-15 -32 -21 -13 -7 -20 -16 -17 -20 3 -5 -2 -12 -11 -15 -10 -4 -13 -2 -8 6 4
6 -11 -3 -34 -22 -23 -18 -42 -38 -42 -43 0 -6 -3 -8 -6 -4 -9 9 -74 -43 -71
-56 1 -7 -4 -11 -11 -9 -10 2 -10 -2 -2 -18 6 -11 14 -21 18 -21 4 -1 21 -3
38 -5 19 -2 48 -19 73 -41 69 -65 142 -128 159 -137 9 -6 28 -20 42 -33 14
-13 32 -25 40 -28 8 -3 25 -21 38 -41 12 -19 30 -38 40 -41 9 -4 36 -25 59
-47 60 -57 112 -99 151 -122 17 -10 32 -25 32 -33 0 -8 3 -12 6 -8 3 3 19 -8
35 -24 15 -16 31 -29 35 -29 5 0 39 -29 104 -91 10 -9 25 -21 33 -25 15 -9 61
-46 162 -134 46 -40 88 -73 118 -91 5 -4 7 -14 4 -23 -4 -11 -1 -16 12 -16 20
0 105 -64 163 -122 21 -21 41 -38 47 -38 5 0 31 -22 58 -50 26 -27 51 -50 55
-50 9 0 50 -33 96 -77 19 -18 38 -33 43 -33 13 0 11 -18 -3 -24 -7 -2 -4 -4 7
-3 11 1 22 -2 25 -8 2 -5 17 -17 32 -25 15 -8 47 -34 72 -57 25 -24 50 -43 56
-43 7 0 9 -7 6 -16 -3 -9 -2 -12 4 -9 6 4 21 -3 33 -14 28 -25 68 -59 108 -91
36 -29 95 -81 146 -127 20 -18 39 -33 43 -33 4 0 20 -12 35 -27 16 -16 25 -21
20 -13 -8 13 -7 13 8 1 11 -9 17 -10 17 -2 0 6 3 10 8 9 10 -4 53 28 47 34 -3
2 1 5 8 5 21 0 148 104 140 115 -3 7 -1 8 5 4 11 -6 92 48 100 67 2 4 9 7 15
7 7 0 32 19 57 42 25 22 36 34 25 27 -18 -13 -19 -13 -6 3 7 10 17 16 21 13 6
-4 41 18 81 52 8 7 46 39 84 70 111 91 115 95 108 106 -3 6 -1 7 5 4 5 -4 21
2 34 13 12 10 73 60 133 111 61 50 134 114 162 141 l53 49 7 2230 c3 1226 4
2229 2 2229 -2 0 -26 -33 -54 -72z m-3265 -3393 c-11 -13 -10 -14 3 -10 8 4
18 1 23 -6 4 -8 3 -10 -4 -5 -7 4 -12 2 -12 -3 0 -14 -11 -14 -30 -1 -13 9
-12 12 4 25 25 19 32 19 16 0z"/>
<path d="M13955 24393 c-1514 -74 -2799 -549 -3856 -1424 -150 -125 -519 -491
-654 -649 -636 -748 -1072 -1662 -1270 -2664 -238 -1204 -124 -2518 328 -3781
709 -1980 2118 -3728 3933 -4878 1352 -856 2834 -1354 4344 -1458 223 -16 787
-16 995 0 977 73 1817 300 2600 705 1719 888 2821 2496 3065 4471 36 298 45
453 44 825 0 378 -12 560 -54 890 -97 746 -311 1503 -636 2245 -148 339 -434
872 -640 1195 -401 629 -803 1129 -1339 1666 -361 362 -618 589 -990 876
-1435 1105 -3096 1782 -4776 1948 -357 35 -793 48 -1094 33z m986 -382 c3 -3
79 -256 169 -561 145 -495 411 -1402 599 -2045 49 -166 88 -273 138 -385 470
-1036 842 -1874 836 -1880 -9 -8 -104 -33 -108 -28 -1 2 -161 305 -355 673
-194 369 -435 826 -536 1018 l-184 347 -278 378 c-153 207 -525 712 -827 1122
-302 410 -638 866 -748 1015 l-198 270 28 7 c26 7 270 39 409 53 l60 7 29 -42
c105 -151 373 -232 508 -152 56 32 72 65 71 147 l-1 73 191 -5 c105 -3 194 -8
197 -12z m384 -26 c203 -23 189 -18 219 -80 68 -138 271 -249 418 -229 86 11
148 75 148 152 0 27 3 32 18 28 9 -2 88 -21 175 -41 l157 -37 1 -116 c0 -65 2
-146 4 -182 3 -36 18 -569 36 -1185 l31 -1120 73 -390 c162 -853 305 -1618
305 -1626 0 -5 -28 -9 -63 -9 l-62 0 -73 278 c-39 152 -159 613 -267 1023
l-194 746 -250 554 c-137 305 -383 851 -546 1214 -421 934 -465 1032 -465
1040 0 9 155 -1 335 -20z m-1360 -1042 c307 -544 604 -1067 659 -1163 54 -96
146 -258 204 -360 58 -102 134 -237 170 -300 36 -63 152 -230 256 -372 540
-726 746 -1004 984 -1325 l260 -351 -61 -36 c-33 -20 -61 -35 -62 -34 -1 2
-278 318 -615 703 -338 385 -704 803 -814 929 -228 260 24 35 -1991 1776 -550
475 -1037 896 -1081 934 l-82 71 57 29 c79 41 317 142 429 182 l94 34 45 -41
c56 -51 148 -95 244 -115 239 -50 402 96 315 282 l-24 51 98 22 c127 29 321
69 340 70 10 1 204 -332 575 -986z m2701 777 c266 -78 384 -120 384 -139 0
-119 178 -286 331 -310 101 -16 177 12 207 77 9 20 17 38 18 40 2 4 381 -163
402 -177 14 -8 -3 -68 -343 -1211 -51 -173 -141 -476 -199 -672 l-106 -357
-40 -378 c-22 -208 -52 -486 -66 -618 -14 -132 -41 -381 -59 -553 -18 -173
-35 -316 -38 -318 -2 -2 -36 3 -76 13 l-71 17 0 980 c0 929 -1 986 -19 1081
-59 300 -389 2012 -447 2311 -24 128 -44 237 -44 243 0 17 16 14 166 -29z
m-3981 -1320 c439 -470 858 -918 930 -995 73 -77 271 -289 441 -471 l310 -331
654 -558 c360 -306 678 -576 705 -600 28 -23 88 -75 135 -115 47 -40 108 -91
135 -115 163 -138 292 -249 304 -261 12 -11 10 -19 -14 -54 -15 -22 -30 -40
-32 -40 -5 0 -109 80 -508 388 -126 98 -399 308 -605 467 -206 159 -502 387
-657 507 -228 176 -315 237 -460 320 -98 57 -925 532 -1836 1057 l-1657 955
27 29 c32 34 250 218 286 241 22 15 27 14 88 -19 87 -46 166 -65 271 -65 187
0 298 85 298 227 0 69 -23 124 -75 181 -20 23 -34 46 -31 51 3 5 57 37 119 72
61 34 139 77 172 95 l60 34 71 -73 c39 -39 430 -457 869 -927z m5586 679 l199
-101 0 -52 c0 -110 96 -237 223 -297 116 -54 209 -51 264 7 l33 35 146 -96
c135 -89 145 -98 132 -116 -7 -10 -137 -204 -290 -431 -152 -227 -424 -633
-605 -903 -264 -392 -336 -508 -366 -580 -19 -49 -76 -187 -125 -305 -49 -118
-183 -440 -297 -715 -114 -275 -210 -503 -214 -508 -4 -4 -33 4 -64 17 l-56
25 284 851 283 850 86 878 c47 482 101 1027 119 1209 17 183 36 333 40 333 5
0 98 -45 208 -101z m-7183 -981 c555 -398 714 -512 1167 -838 381 -274 1512
-1085 1590 -1140 44 -31 141 -91 215 -132 201 -112 1101 -617 1285 -721 198
-111 339 -191 610 -342 116 -64 220 -123 232 -131 l21 -13 -20 -53 c-11 -29
-21 -54 -22 -56 -3 -2 -442 208 -1166 558 -389 188 -566 273 -675 325 -49 24
-189 91 -310 150 l-220 107 -710 229 c-702 227 -900 291 -1515 489 -173 56
-511 164 -750 241 -239 77 -554 179 -700 225 -146 47 -276 89 -290 94 -14 5
-97 32 -185 60 -88 29 -161 53 -163 55 -9 8 252 435 265 435 3 0 43 -12 89
-26 76 -24 96 -26 197 -22 93 3 121 8 167 30 160 73 216 209 145 354 -31 63
-102 138 -159 169 -20 11 -36 22 -36 25 0 10 331 350 341 350 5 0 273 -190
597 -422z m8304 301 c40 -28 121 -87 180 -131 99 -75 106 -82 97 -105 -29 -77
9 -183 98 -271 107 -105 242 -148 327 -103 21 11 45 17 51 13 24 -13 275 -245
275 -253 0 -4 -185 -153 -411 -331 -388 -305 -451 -354 -645 -504 -43 -34 -91
-73 -106 -87 -15 -14 -29 -23 -31 -20 -3 2 -14 -7 -25 -21 -11 -15 -23 -26
-26 -26 -3 0 -27 -17 -54 -37 -27 -21 -66 -51 -88 -68 -21 -16 -93 -73 -159
-125 -66 -52 -134 -105 -151 -117 -17 -12 -63 -59 -102 -105 -39 -46 -182
-214 -319 -374 -136 -159 -358 -419 -492 -577 -135 -158 -248 -287 -251 -287
-17 0 -101 73 -97 85 5 10 167 236 908 1266 l97 135 406 1010 c455 1134 435
1084 441 1084 3 0 38 -23 77 -51z m1458 -1319 c-26 -26 -34 -61 -27 -126 11
-103 101 -219 218 -280 46 -25 65 -29 135 -29 l82 0 116 -150 c63 -82 129
-169 146 -192 l31 -41 -453 -150 c-249 -83 -750 -248 -1113 -367 l-660 -217
-195 -106 c-107 -58 -298 -162 -425 -232 -126 -70 -345 -190 -485 -267 -140
-77 -277 -153 -305 -168 -27 -15 -77 -42 -110 -60 l-60 -33 -53 64 c-28 35
-52 66 -52 68 0 4 59 48 365 271 105 76 231 168 280 205 50 36 140 102 200
146 61 45 196 144 300 220 105 77 208 153 230 168 43 30 122 123 117 137 -1 5
2 8 7 7 10 -4 102 107 96 116 -3 3 -2 4 1 1 10 -7 125 136 117 147 -3 6 -1 8
5 4 11 -7 109 111 105 126 -2 4 1 7 6 5 5 -1 48 45 96 103 48 58 110 132 139
166 28 33 209 251 401 483 l350 422 207 -211 c206 -209 208 -210 188 -230z
m-11348 61 c199 -87 330 -144 563 -246 149 -64 306 -133 350 -152 44 -19 334
-145 645 -280 311 -135 637 -277 725 -315 88 -39 189 -83 225 -98 36 -15 171
-74 300 -130 129 -56 352 -153 495 -215 143 -62 384 -167 535 -233 l275 -119
1155 -352 c635 -194 1207 -368 1270 -388 l115 -35 -3 -69 c-3 -53 -7 -69 -19
-69 -8 0 -182 36 -386 80 -689 149 -1380 299 -1772 385 l-390 85 -1525 100
c-839 55 -1895 124 -2348 153 -452 30 -825 57 -829 60 -12 12 45 354 93 558
l25 106 102 -5 c115 -5 187 7 267 44 77 35 131 83 165 145 26 47 30 64 30 134
0 91 -19 141 -82 215 -44 51 -137 114 -205 138 -26 9 -48 20 -48 25 0 23 215
497 226 497 1 0 22 -9 46 -19z m12197 -1096 c111 -164 120 -181 104 -192 -85
-58 -96 -153 -32 -273 64 -120 181 -206 297 -219 l56 -6 84 -158 c47 -87 83
-160 80 -162 -7 -7 -87 -12 -1373 -85 l-1210 -68 -918 -206 c-505 -113 -920
-206 -922 -206 -2 0 -17 25 -33 55 l-30 54 47 15 c39 13 423 126 1041 308 676
198 703 207 800 262 119 67 821 464 1240 701 498 282 644 364 646 362 1 -1 57
-83 123 -182z m-12210 -905 c328 -56 835 -141 1126 -190 292 -49 850 -143
1240 -209 391 -66 940 -158 1220 -205 l510 -85 480 -20 c264 -12 532 -23 595
-26 290 -13 394 -18 695 -30 72 -3 168 -7 215 -10 47 -2 148 -7 225 -10 77 -3
190 -8 251 -11 l111 -6 17 -61 c9 -33 13 -63 9 -67 -4 -4 -143 -11 -308 -15
-165 -3 -329 -8 -365 -10 -36 -2 -173 -6 -305 -9 -132 -4 -305 -9 -385 -11
-80 -3 -296 -10 -480 -15 -184 -5 -420 -13 -525 -16 l-190 -6 -1125 -219
c-1574 -308 -1366 -267 -3038 -595 -281 -55 -497 -93 -502 -88 -15 16 -90 499
-90 581 0 30 3 33 29 33 47 0 162 39 223 76 66 41 123 101 158 170 21 42 25
62 25 144 0 85 -3 101 -29 152 -38 75 -113 149 -196 192 -73 38 -164 66 -219
66 l-34 0 7 153 c7 164 24 388 32 425 2 12 10 22 16 22 6 0 280 -45 607 -100z
m12857 -212 c109 -242 161 -364 157 -370 -2 -5 -15 -8 -29 -8 -14 0 -40 -15
-62 -34 l-37 -35 0 -88 c0 -77 4 -95 29 -143 16 -30 44 -74 62 -97 44 -53 146
-121 194 -129 20 -3 42 -9 48 -13 9 -5 94 -267 116 -354 6 -27 5 -28 -21 -23
-15 3 -458 87 -983 186 -525 99 -1146 216 -1380 260 l-425 81 -995 44 c-547
25 -1016 45 -1041 45 l-46 0 -17 61 c-9 34 -15 64 -12 66 2 3 463 18 1023 33
l1018 29 1165 274 c641 151 1175 275 1186 276 17 1 27 -12 50 -61z m-3777
-899 c1376 -301 1506 -328 1596 -334 50 -3 621 -26 1270 -50 1291 -49 1397
-54 1406 -63 7 -7 78 -296 103 -416 l14 -68 -28 5 c-66 14 -149 -36 -171 -101
-52 -156 69 -382 247 -463 l41 -19 11 -117 c15 -151 26 -363 20 -363 -7 0
-194 83 -963 428 -368 165 -971 434 -1340 599 l-670 300 -285 87 c-157 48
-642 196 -1078 329 l-794 242 -1 68 c-2 51 1 67 12 67 7 0 282 -59 610 -131z
m-2309 21 c17 -33 29 -60 27 -60 -2 0 -537 -160 -1188 -355 l-1184 -356 -260
-131 c-143 -72 -305 -154 -360 -183 -55 -29 -280 -143 -500 -255 -220 -111
-494 -251 -610 -310 -215 -110 -535 -273 -1100 -560 -176 -89 -410 -209 -520
-265 -560 -287 -854 -435 -862 -435 -10 0 -142 265 -218 439 -35 80 -42 107
-33 113 7 5 31 18 53 30 22 11 67 48 101 82 174 175 172 425 -6 589 -100 93
-221 137 -376 137 l-92 0 -16 48 c-37 115 -151 573 -143 577 1 1 470 41 1042
89 572 48 1663 141 2425 207 l1385 118 265 61 c146 34 454 103 685 155 925
207 1185 266 1305 294 69 16 131 29 137 30 7 1 26 -26 43 -59z m2036 -283
c197 -96 681 -329 1074 -519 l715 -346 1490 -452 c918 -278 1495 -458 1503
-468 13 -18 16 -199 6 -364 l-7 -96 -40 14 c-22 8 -53 14 -69 14 -34 0 -94
-24 -122 -48 -80 -71 -73 -266 15 -403 29 -45 117 -136 151 -155 15 -8 15 -17
2 -99 -22 -146 -58 -325 -63 -325 -4 0 -181 128 -396 283 -214 155 -570 413
-790 572 -357 258 -568 410 -1055 763 -504 365 -688 496 -748 530 -103 60
-139 81 -1337 752 -385 215 -704 396 -708 400 -7 6 10 120 18 120 1 0 163 -78
361 -173z m-1884 64 l56 -68 -307 -226 c-587 -434 -1102 -816 -1418 -1050
l-202 -149 -298 -327 c-164 -179 -329 -360 -368 -401 -38 -42 -110 -120 -160
-175 -78 -86 -200 -219 -215 -235 -3 -3 -27 -30 -54 -60 -28 -30 -98 -107
-156 -170 -58 -63 -128 -140 -156 -170 -88 -98 -148 -163 -215 -235 -36 -38
-139 -151 -229 -250 -90 -99 -332 -364 -538 -590 -207 -225 -436 -477 -511
-560 -75 -82 -165 -180 -201 -218 l-66 -69 -164 169 c-164 167 -440 474 -440
488 0 5 23 32 50 61 30 31 66 86 87 130 63 132 57 300 -15 423 -60 103 -193
195 -319 221 -89 19 -234 8 -317 -24 -37 -14 -70 -26 -72 -26 -24 0 -459 739
-444 753 3 2 118 46 255 97 138 50 457 169 710 262 253 94 537 199 630 233 94
35 422 156 730 270 638 237 886 328 1485 550 234 86 484 179 557 206 108 41
288 136 1015 536 486 267 960 528 1053 579 94 52 172 94 175 94 3 0 31 -31 62
-69z m1573 -172 c55 -42 134 -103 177 -135 42 -33 112 -86 155 -120 43 -33
130 -100 193 -149 63 -49 142 -109 175 -135 33 -26 110 -85 170 -131 61 -47
281 -217 490 -379 209 -161 414 -319 455 -350 41 -32 257 -160 480 -285 482
-271 679 -382 780 -440 162 -92 544 -308 1195 -675 374 -211 682 -385 684
-387 7 -6 -92 -400 -104 -412 -2 -2 -17 6 -34 18 -93 67 -217 66 -289 -2 -61
-56 -86 -175 -62 -290 15 -77 69 -180 126 -245 45 -51 46 -54 33 -85 -23 -59
-148 -317 -153 -317 -2 0 -11 6 -18 14 -7 7 -47 49 -89 92 -41 44 -568 603
-1170 1244 -602 640 -1168 1244 -1259 1340 -169 179 -151 163 -1249 1100 -120
102 -286 244 -371 315 -227 193 -312 264 -345 294 -16 14 -56 48 -87 74 l-57
48 27 44 c14 24 31 41 37 37 5 -3 55 -40 110 -83z m-1325 -58 c0 -3 -174 -249
-386 -546 -381 -534 -634 -890 -869 -1220 -105 -147 -132 -194 -202 -350 -45
-99 -229 -504 -408 -900 -180 -396 -458 -1008 -617 -1360 -160 -352 -334 -737
-388 -855 -54 -118 -175 -386 -270 -595 -95 -209 -173 -381 -174 -382 -6 -6
-595 356 -625 383 -2 2 8 30 22 62 128 284 -36 619 -333 683 -150 32 -345 -23
-457 -130 l-22 -21 -78 67 c-120 104 -344 307 -385 350 l-37 38 316 270 c464
396 1323 1129 1868 1596 439 376 1138 973 1264 1079 114 97 183 175 898 1012
l774 908 54 -41 c30 -23 55 -44 55 -48z m1271 -201 c94 -107 229 -260 299
-340 70 -80 378 -430 684 -779 l556 -634 743 -640 c408 -352 787 -679 842
-726 55 -48 298 -257 540 -466 242 -208 472 -406 510 -440 39 -34 120 -104
180 -155 167 -141 153 -118 114 -187 -58 -103 -151 -256 -201 -331 l-49 -73
-39 38 c-84 84 -213 123 -305 93 -53 -18 -109 -71 -136 -133 -21 -45 -24 -67
-23 -162 1 -125 20 -192 80 -283 l35 -53 -82 -87 c-45 -48 -111 -116 -148
-151 -36 -34 -91 -88 -122 -118 l-56 -54 -83 143 c-46 79 -201 346 -345 593
-144 248 -571 982 -948 1632 -378 650 -707 1216 -731 1257 -24 41 -149 215
-276 388 -128 172 -286 385 -351 473 -107 144 -239 323 -801 1078 -93 126
-168 232 -166 237 4 12 92 79 100 77 4 -1 85 -90 179 -197z m-1101 115 c28
-14 48 -30 45 -38 -2 -6 -119 -365 -260 -797 -235 -719 -333 -1018 -445 -1360
-39 -120 -45 -156 -141 -865 -54 -407 -115 -855 -134 -995 -44 -327 -60 -447
-200 -1485 -64 -473 -134 -992 -155 -1154 -22 -162 -41 -295 -42 -296 -4 -3
-391 109 -473 137 l-68 23 2 95 c3 151 -41 274 -132 375 -196 217 -544 183
-712 -70 -20 -30 -40 -55 -45 -55 -23 0 -586 276 -642 314 -15 10 79 168 799
1346 448 734 994 1628 1212 1986 l398 651 333 804 c183 442 369 890 412 994
44 105 100 241 125 303 28 69 51 112 59 112 8 0 37 -11 64 -25z m1090 -700
c402 -762 596 -1127 667 -1260 29 -55 87 -166 129 -246 78 -149 76 -146 698
-1004 260 -358 1583 -2183 1753 -2417 79 -109 143 -200 143 -202 0 -8 -173
-151 -284 -235 l-110 -82 -25 33 c-184 237 -471 212 -563 -49 -24 -70 -26
-210 -4 -293 8 -30 13 -56 12 -57 -1 -2 -76 -40 -167 -86 -172 -88 -289 -140
-296 -134 -3 4 -166 521 -662 2097 -92 295 -360 1147 -551 1752 l-131 417
-256 568 c-140 312 -382 850 -538 1195 l-282 627 56 19 c51 17 57 17 67 3 6
-9 161 -299 344 -646z m-844 623 l64 -13 0 -1257 0 -1258 380 -2282 c209
-1256 381 -2292 383 -2303 2 -18 -6 -21 -93 -27 -52 -4 -205 -8 -339 -10
l-245 -3 -13 65 c-32 156 -140 303 -268 366 -54 26 -70 29 -160 29 -88 0 -107
-3 -158 -27 -114 -53 -204 -167 -242 -304 -15 -52 -20 -60 -39 -57 -266 42
-376 62 -551 99 -115 25 -214 49 -218 53 -4 4 105 446 242 982 137 536 396
1546 575 2244 l325 1270 41 390 c22 215 54 516 70 670 35 332 88 831 95 895 3
25 14 133 25 240 27 258 28 263 47 256 9 -4 44 -12 79 -18z m619 -1268 c298
-1134 332 -1257 385 -1380 55 -129 558 -1295 815 -1890 68 -157 223 -517 345
-800 122 -283 301 -697 397 -920 96 -223 177 -410 180 -416 2 -6 -43 -29 -104
-53 -109 -44 -419 -151 -434 -151 -4 0 -25 32 -45 70 -47 91 -127 171 -212
212 -59 29 -75 33 -147 32 -50 0 -93 -7 -115 -17 -141 -63 -227 -206 -235
-392 -3 -73 -5 -80 -27 -87 -51 -16 -515 -74 -524 -66 -2 3 -63 1034 -134
2292 l-130 2287 -150 797 c-83 438 -189 998 -236 1244 -46 246 -84 456 -84
467 0 17 8 20 58 23 31 2 60 1 63 -2 3 -3 153 -565 334 -1250z"/>
<path d="M37986 24022 c-3 -5 1 -9 9 -9 8 0 12 4 9 9 -3 4 -7 8 -9 8 -2 0 -6
-4 -9 -8z"/>
<path d="M38170 23946 c0 -2 7 -7 16 -10 8 -3 12 -2 9 4 -6 10 -25 14 -25 6z"/>
<path d="M38228 23903 c6 -2 9 -10 6 -15 -4 -7 -2 -8 5 -4 13 9 5 26 -12 25
-9 0 -8 -2 1 -6z"/>
<path d="M38239 23864 c-9 -11 -8 -14 4 -14 9 0 19 5 22 10 5 8 12 7 23 -2 14
-10 15 -10 5 2 -17 19 -40 21 -54 4z"/>
<path d="M38324 23810 c0 -16 3 -27 7 -24 5 2 6 11 2 19 -9 25 13 17 27 -10 8
-15 16 -21 20 -15 4 7 15 4 31 -8 19 -16 21 -22 11 -34 -6 -8 -9 -18 -5 -21 3
-4 2 -7 -3 -7 -5 0 -10 -9 -11 -20 -1 -11 2 -20 8 -20 5 0 10 9 10 20 2 35 4
39 17 52 11 11 12 10 7 -4 -5 -13 -2 -18 11 -19 11 0 14 -3 7 -6 -7 -2 -13
-10 -13 -15 0 -6 3 -8 7 -5 11 11 32 -14 26 -30 -4 -10 -2 -14 4 -10 6 4 13 0
17 -8 3 -8 13 -15 21 -15 9 0 14 -4 11 -9 -3 -5 1 -11 9 -15 8 -3 15 -12 15
-20 0 -8 10 -22 22 -30 12 -9 19 -16 15 -16 -4 0 -3 -6 3 -12 42 -51 50 -63
45 -75 -2 -8 0 -11 5 -8 11 7 31 -15 95 -100 21 -27 41 -52 44 -55 21 -17 115
-157 113 -167 -2 -7 4 -13 13 -13 8 0 20 -11 25 -25 5 -14 14 -25 19 -25 6 0
22 -16 37 -36 23 -30 25 -37 13 -46 -11 -7 -9 -9 9 -5 12 3 22 1 22 -4 0 -6
13 -24 30 -42 16 -18 30 -38 30 -44 0 -7 4 -13 9 -13 5 0 14 -13 21 -30 7 -16
18 -30 24 -30 17 -1 48 -49 42 -66 -3 -8 0 -14 8 -14 12 0 27 -16 99 -103 10
-12 26 -31 35 -42 9 -11 30 -40 46 -63 16 -24 34 -46 40 -50 14 -9 96 -117 96
-126 0 -4 10 -17 23 -30 38 -40 107 -131 107 -142 0 -4 12 -19 28 -34 27 -27
43 -48 72 -91 8 -12 26 -33 39 -46 29 -31 91 -111 91 -119 0 -4 8 -14 18 -23
30 -28 71 -88 65 -95 -4 -4 2 -9 12 -12 11 -3 31 -23 45 -45 13 -21 28 -39 32
-39 4 0 8 -9 8 -21 0 -11 5 -17 10 -14 6 3 10 3 10 -2 0 -4 18 -27 40 -51 38
-41 55 -82 28 -66 -7 4 -9 3 -5 -1 11 -13 38 -15 31 -3 -5 7 -2 8 5 4 7 -5 10
-10 7 -13 -3 -3 6 -14 19 -25 14 -11 23 -23 20 -28 -5 -8 23 -25 38 -22 4 1 6
-3 5 -9 -2 -6 6 -16 16 -22 20 -13 48 -35 81 -67 12 -11 26 -20 32 -20 7 0 17
-9 23 -20 6 -11 15 -18 20 -15 5 3 15 -4 24 -16 8 -12 19 -18 25 -14 7 4 10 1
9 -7 -2 -7 3 -12 10 -10 8 1 11 -1 8 -6 -2 -4 14 -26 37 -48 23 -21 35 -30 27
-19 -8 10 19 -15 61 -55 42 -41 83 -80 90 -86 46 -37 369 -383 489 -524 40
-47 84 -98 99 -115 58 -66 222 -268 502 -620 470 -588 601 -737 896 -1017 39
-38 73 -68 77 -68 3 0 29 -22 57 -50 29 -27 56 -47 61 -44 4 3 8 0 8 -6 0 -11
46 -54 52 -49 2 2 23 -16 48 -38 24 -23 48 -39 52 -37 4 3 8 1 8 -5 0 -6 10
-16 23 -22 19 -11 20 -10 9 3 -10 12 -9 18 2 28 9 6 21 9 28 5 7 -4 2 2 -12
13 -21 17 -26 18 -35 6 -9 -13 -14 -12 -33 5 -13 10 -24 28 -25 39 -1 16 -5
19 -19 11 -22 -12 -23 -6 -3 14 13 13 13 16 -1 21 -8 3 -12 2 -9 -4 3 -6 4
-10 1 -10 -3 0 -13 14 -21 30 -9 17 -20 28 -25 25 -6 -4 -10 1 -10 9 0 9 -4
16 -10 16 -5 0 -10 7 -10 15 0 9 -7 18 -15 21 -8 4 -15 10 -15 16 0 5 -11 20
-24 33 -13 12 -34 40 -47 62 -13 21 -36 52 -51 68 -15 17 -28 33 -28 38 0 4
-7 7 -15 7 -8 0 -15 6 -15 13 0 8 -8 23 -17 35 -10 11 -29 35 -43 53 -14 17
-36 46 -50 63 -14 17 -41 51 -60 76 -19 25 -38 47 -42 48 -4 2 -8 9 -8 15 0 7
-17 30 -38 52 -21 22 -51 58 -67 80 -17 22 -38 49 -48 60 -10 11 -25 32 -33
47 -8 15 -23 32 -34 38 -11 6 -20 17 -20 25 0 7 -4 15 -8 17 -4 2 -23 23 -42
48 -19 25 -37 47 -41 50 -4 4 -22 28 -71 95 -4 5 -19 24 -33 41 -13 17 -22 34
-18 38 3 3 -1 6 -10 6 -9 0 -17 7 -17 15 0 8 -5 15 -11 15 -6 0 -9 7 -5 15 3
9 0 15 -8 15 -14 0 -31 19 -92 100 -23 30 -51 66 -62 80 -72 84 -142 176 -142
188 0 7 -4 10 -10 7 -5 -3 -10 -2 -10 4 0 9 -27 45 -65 85 -11 11 -32 38 -45
58 -14 21 -30 38 -36 38 -7 0 -15 11 -18 25 -4 14 -11 25 -16 25 -6 0 -10 6
-10 13 0 7 -10 20 -23 30 -13 9 -29 33 -37 52 -9 24 -16 31 -22 23 -5 -9 -8
-8 -8 5 0 9 -5 17 -11 17 -8 0 -7 5 1 15 10 13 10 19 -4 33 -9 10 -14 22 -11
25 3 4 2 5 -2 2 -3 -3 -12 0 -19 6 -8 6 -20 9 -28 6 -10 -4 -13 -1 -10 7 3 8
0 17 -7 22 -8 5 -10 3 -4 -7 8 -12 6 -12 -8 0 -9 7 -17 20 -17 27 0 8 -4 14
-8 14 -5 0 -28 18 -52 39 -25 22 -48 37 -52 35 -4 -3 -8 -1 -8 4 0 5 -30 33
-67 63 -38 30 -76 63 -85 74 -10 11 -17 17 -18 14 0 -14 -326 308 -460 456
-158 173 -235 266 -625 755 -426 534 -565 698 -792 945 -135 146 -401 405
-417 405 -3 0 -25 20 -49 45 -25 25 -49 45 -53 45 -8 1 -39 27 -144 124 -32
28 -66 47 -73 40 -3 -3 -10 3 -16 14 -18 33 -37 34 -37 2z m3045 -3153 c19
-21 20 -26 7 -36 -12 -10 -14 -8 -9 11 3 13 2 20 -2 16 -10 -10 -37 11 -29 23
7 12 8 12 33 -14z m1741 -2202 c-7 -9 -15 -13 -19 -10 -3 3 1 10 9 15 21 14
24 12 10 -5z"/>
<path d="M38487 23619 c7 -7 15 -10 18 -7 3 3 -2 9 -12 12 -14 6 -15 5 -6 -5z"/>
<path d="M12 21750 l3 -1872 220 -139 c433 -274 893 -541 1350 -784 311 -165
672 -345 679 -337 3 3 6 0 6 -6 0 -9 18 -19 50 -27 3 -1 75 -36 160 -77 196
-95 242 -116 420 -194 80 -35 153 -69 163 -74 10 -6 22 -8 27 -5 6 4 10 1 10
-5 0 -6 5 -8 10 -5 6 3 10 2 10 -3 0 -12 56 -33 64 -25 3 4 6 1 6 -5 0 -7 3
-11 8 -10 4 1 22 -6 40 -15 17 -10 32 -14 32 -10 0 5 4 3 8 -3 12 -17 112 -55
124 -48 7 4 8 3 4 -4 -4 -8 0 -12 11 -12 10 0 27 -6 38 -13 11 -7 36 -19 55
-27 19 -7 53 -21 75 -31 140 -61 448 -178 456 -174 5 4 9 2 9 -3 0 -10 38 -24
74 -28 10 -1 22 -7 26 -14 4 -6 19 -13 33 -13 14 -1 23 -4 21 -6 -2 -3 31 -18
73 -34 283 -104 410 -150 423 -151 8 -1 24 -7 35 -13 11 -6 175 -63 365 -126
696 -233 1357 -422 2110 -606 215 -53 552 -131 562 -131 2 0 -11 73 -29 163
-73 369 -117 751 -135 1169 -27 624 42 1327 187 1897 14 57 22 107 18 111 -4
3 -151 44 -325 89 -311 81 -605 163 -923 256 -88 26 -167 48 -175 49 -8 0 -17
3 -20 6 -3 3 -63 25 -135 47 -96 31 -132 39 -142 31 -10 -8 -12 -7 -7 6 4 10
1 16 -7 16 -8 0 -53 13 -101 28 -60 20 -91 26 -103 19 -11 -6 -21 -5 -28 3 -9
8 -8 10 6 5 10 -4 17 -2 17 4 0 11 -19 15 -54 11 -11 -1 -15 3 -12 9 4 6 0 12
-8 12 -19 2 -26 4 -46 12 -46 19 -99 33 -93 24 3 -5 0 -7 -8 -5 -8 3 -13 11
-12 17 4 14 -14 15 -22 1 -3 -5 -14 -10 -23 -9 -14 0 -14 2 2 8 25 10 7 22
-37 28 -17 1 -33 6 -36 11 -7 9 -36 14 -81 14 -28 -1 -31 1 -15 8 16 7 17 9 3
9 -22 1 -32 -15 -16 -26 18 -11 32 -10 41 2 6 7 10 6 14 -3 2 -6 9 -10 14 -6
11 6 12 -17 1 -31 -4 -6 -22 -8 -42 -4 -19 3 -29 7 -22 8 22 2 -24 39 -62 50
-41 11 -39 16 -36 -86 1 -51 -2 -63 -14 -63 -9 0 -16 8 -16 20 0 31 -15 24
-51 -22 -33 -40 -34 -41 -39 -17 -3 13 -6 -30 -5 -96 0 -66 -2 -111 -5 -100
-3 11 -7 -45 -11 -125 -3 -85 -5 -1 -5 203 1 274 -2 346 -11 342 -7 -2 -13 0
-13 4 0 5 -7 11 -14 14 -11 4 -13 1 -9 -11 6 -14 4 -15 -9 -4 -11 9 -18 10
-23 2 -3 -5 1 -13 9 -16 9 -3 16 -10 16 -15 0 -14 -50 -59 -65 -59 -8 0 -15
-7 -15 -15 0 -18 -47 -65 -65 -65 -11 0 -15 12 -15 40 l0 40 -40 0 -40 0 0
-40 0 -40 40 0 c28 0 40 -4 40 -15 0 -18 -47 -65 -65 -65 -8 0 -15 -8 -15 -18
0 -10 -9 -25 -20 -35 -15 -12 -20 -29 -20 -62 0 -41 -2 -45 -24 -45 -16 0 -35
-14 -60 -44 -20 -24 -36 -49 -36 -55 0 -5 -11 -22 -25 -36 -20 -19 -36 -25
-68 -25 -50 0 -67 -13 -67 -52 0 -21 5 -28 20 -28 17 0 20 -7 20 -40 0 -33 -3
-40 -20 -40 -11 0 -20 -7 -20 -15 0 -18 -47 -65 -65 -65 -11 0 -15 12 -15 40
l0 40 -40 0 -40 0 0 -40 0 -40 40 0 c32 0 40 -4 40 -18 0 -10 -9 -25 -20 -35
-15 -12 -20 -29 -20 -62 0 -38 -3 -45 -20 -45 -11 0 -20 -7 -20 -15 0 -18 -47
-65 -65 -65 -11 0 -15 12 -15 40 l0 40 -40 0 -40 0 0 -40 0 -40 40 0 c32 0 40
-4 40 -18 0 -10 -10 -26 -22 -37 -21 -17 -21 -20 -5 -23 15 -3 13 -9 -14 -43
-17 -21 -37 -39 -45 -39 -10 0 -14 -12 -14 -40 0 -22 -4 -40 -10 -40 -5 0 -10
-18 -10 -40 0 -33 -3 -40 -20 -40 -11 0 -20 7 -20 16 0 8 -4 12 -10 9 -5 -3
-10 -21 -10 -38 -1 -30 -19 -67 -34 -67 -3 0 -6 18 -6 40 0 29 -4 40 -15 40
-12 0 -15 20 -15 118 0 65 3 122 8 126 4 4 8 202 10 439 1 238 4 538 7 667 9
438 7 424 51 416 13 -3 24 -1 24 4 0 5 -13 8 -30 6 -18 -2 -35 3 -42 12 -11
13 -10 15 2 10 9 -3 24 0 35 8 10 8 14 14 9 14 -6 0 -16 -6 -23 -12 -11 -11
-13 -10 -8 4 5 13 -8 24 -54 47 -33 17 -67 27 -76 24 -10 -4 -14 -2 -9 5 3 6
-3 14 -16 18 -13 4 -66 27 -118 51 -52 25 -105 46 -117 47 -12 0 -20 3 -17 5
7 7 -48 31 -57 25 -5 -3 -9 -1 -9 3 0 5 -19 17 -42 28 -24 10 -90 40 -148 68
-58 27 -111 50 -117 50 -7 0 -13 3 -13 7 0 12 -160 81 -172 74 -6 -4 -9 -3 -6
2 6 9 -678 361 -693 356 -5 -1 -9 2 -9 7 0 5 -33 26 -72 46 -263 137 -851 482
-1208 708 -355 225 -897 595 -1113 761 l-37 28 2 -1872z m5145 -1067 c-3 -10
-5 -2 -5 17 0 19 2 27 5 18 2 -10 2 -26 0 -35z m248 28 c-3 -5 -1 -12 5 -16
18 -11 11 -20 -15 -20 -14 0 -25 3 -25 7 0 4 -7 5 -15 2 -9 -4 -15 0 -15 9 0
14 17 21 58 26 7 0 11 -3 7 -8z m139 0 c3 -5 -2 -15 -12 -22 -15 -13 -16 -12
-4 3 10 13 10 17 0 21 -9 4 -9 6 -1 6 6 1 14 -3 17 -8z m1 -41 c-3 -5 -12 -10
-18 -10 -7 0 -6 4 3 10 19 12 23 12 15 0z m-471 -34 c-9 -24 -34 -28 -34 -6 0
13 7 20 20 20 13 0 17 -5 14 -14z m-80 -80 c-9 -24 -34 -28 -34 -6 0 13 7 20
20 20 13 0 17 -5 14 -14z m153 -23 c-3 -10 -5 -4 -5 12 0 17 2 24 5 18 2 -7 2
-21 0 -30z m-393 -297 c-9 -24 -34 -28 -34 -6 0 13 7 20 20 20 13 0 17 -5 14
-14z m-560 -880 c-9 -24 -34 -28 -34 -6 0 13 7 20 20 20 13 0 17 -5 14 -14z
m-127 -448 c-2 -13 -4 -3 -4 22 0 25 2 35 4 23 2 -13 2 -33 0 -45z"/>
<path d="M38440 23605 c7 -9 15 -13 17 -11 7 7 -7 26 -19 26 -6 0 -6 -6 2 -15z"/>
<path d="M56613 23067 c0 -8 6 -14 14 -14 9 0 10 4 2 14 -6 7 -12 13 -14 13
-1 0 -2 -6 -2 -13z"/>
<path d="M56506 22998 c3 -5 10 -6 15 -3 13 9 11 12 -6 12 -8 0 -12 -4 -9 -9z"/>
<path d="M56476 22982 c-3 -5 1 -9 9 -9 8 0 12 4 9 9 -3 4 -7 8 -9 8 -2 0 -6
-4 -9 -8z"/>
<path d="M56452 22935 c16 -30 21 -33 13 -6 -5 16 -4 21 4 17 6 -4 11 -3 11 3
0 5 -9 9 -19 8 -16 -1 -18 -5 -9 -22z"/>
<path d="M56545 22940 c3 -5 8 -10 11 -10 2 0 4 5 4 10 0 6 -5 10 -11 10 -5 0
-7 -4 -4 -10z"/>
<path d="M56420 22930 c-9 -6 -10 -10 -3 -10 6 0 15 5 18 10 8 12 4 12 -15 0z"/>
<path d="M56385 22912 c-28 -20 -8 -38 22 -19 6 4 19 4 30 1 15 -5 15 -4 3 5
-8 6 -23 8 -34 5 -12 -4 -16 -2 -12 5 8 13 5 14 -9 3z"/>
<path d="M56330 22870 c0 -5 5 -10 10 -10 6 0 10 5 10 10 0 6 -4 10 -10 10 -5
0 -10 -4 -10 -10z"/>
<path d="M56296 22845 c-10 -8 -24 -12 -30 -8 -6 3 -5 0 2 -8 7 -8 24 -14 38
-14 22 -1 23 1 10 10 -12 9 -13 14 -4 23 16 16 7 14 -16 -3z"/>
<path d="M56375 22820 c-3 -5 -1 -10 4 -10 6 0 11 5 11 10 0 6 -2 10 -4 10 -3
0 -8 -4 -11 -10z"/>
<path d="M56205 22790 c3 -5 -1 -11 -7 -14 -7 -2 -2 -3 12 -2 29 3 34 18 7 22
-9 1 -15 -1 -12 -6z"/>
<path d="M39930 21677 c0 -4 -4 -6 -9 -3 -11 7 -8 -21 4 -31 4 -4 5 -3 1 4 -4
7 4 18 21 27 25 13 26 15 6 13 -13 -1 -23 -5 -23 -10z"/>
<path d="M39966 21657 c3 -10 9 -15 12 -12 3 3 0 11 -7 18 -10 9 -11 8 -5 -6z"/>
<path d="M40029 21593 c-13 -16 -12 -17 4 -4 16 13 21 21 13 21 -2 0 -10 -8
-17 -17z"/>
<path d="M58860 21205 c0 -8 4 -15 8 -15 5 0 9 7 9 15 0 8 -4 15 -9 15 -4 0
-8 -7 -8 -15z"/>
<path d="M58815 21197 c-13 -10 -15 -16 -6 -21 6 -4 8 -12 5 -18 -4 -7 -2 -8
5 -4 9 6 9 11 0 22 -14 17 -6 18 24 3 20 -9 20 -9 5 4 -10 8 -15 17 -11 20 11
12 -3 7 -22 -6z"/>
<path d="M4220 21180 c0 -5 11 -10 25 -10 14 0 25 5 25 10 0 6 -11 10 -25 10
-14 0 -25 -4 -25 -10z"/>
<path d="M4379 21164 c6 -12 9 -23 7 -25 -3 -2 10 -5 27 -6 30 -1 31 -1 8 8
-13 5 -30 17 -38 27 -13 15 -13 15 -4 -4z"/>
<path d="M4151 21144 c0 -11 3 -14 6 -6 3 7 2 16 -1 19 -3 4 -6 -2 -5 -13z"/>
<path d="M4323 21147 c0 -15 34 -20 42 -6 4 5 -2 6 -11 2 -12 -4 -15 -3 -10 5
4 7 1 12 -7 12 -7 0 -14 -6 -14 -13z"/>
<path d="M58656 21122 c-3 -4 4 -9 15 -9 23 -2 25 3 4 10 -8 4 -16 3 -19 -1z"/>
<path d="M58700 21126 c0 -2 8 -10 18 -17 15 -13 16 -12 3 4 -13 16 -21 21
-21 13z"/>
<path d="M4497 21109 c7 -7 15 -10 18 -7 3 3 -2 9 -12 12 -14 6 -15 5 -6 -5z"/>
<path d="M58646 21091 c3 -3 13 -6 22 -6 10 0 16 -7 15 -19 -1 -13 2 -15 10
-7 14 14 -8 40 -33 38 -11 -1 -17 -4 -14 -6z"/>
<path d="M4500 21086 c0 -2 7 -7 16 -10 8 -3 12 -2 9 4 -6 10 -25 14 -25 6z"/>
<path d="M4483 21059 c-2 -22 12 -25 20 -5 3 8 0 16 -7 19 -6 3 -13 -4 -13
-14z"/>
<path d="M4585 21070 c-3 -6 1 -7 9 -4 18 7 21 14 7 14 -6 0 -13 -4 -16 -10z"/>
<path d="M58604 21038 c-3 -5 -3 -12 0 -15 3 -4 6 -1 6 7 0 10 3 10 14 1 10
-8 16 -9 21 -1 3 5 5 10 3 11 -26 6 -39 5 -44 -3z"/>
<path d="M4650 21019 c0 -5 5 -7 10 -4 6 3 10 8 10 11 0 2 -4 4 -10 4 -5 0
-10 -5 -10 -11z"/>
<path d="M4720 21020 c0 -5 5 -10 11 -10 5 0 7 5 4 10 -3 6 -8 10 -11 10 -2 0
-4 -4 -4 -10z"/>
<path d="M58569 21018 c-6 -11 -5 -46 1 -43 12 7 19 45 9 45 -5 0 -10 -1 -10
-2z"/>
<path d="M4548 20998 c9 -9 15 -9 24 0 9 9 7 12 -12 12 -19 0 -21 -3 -12 -12z"/>
<path d="M4699 20987 c7 -7 14 -8 21 -1 6 6 2 10 -12 11 -16 2 -18 -1 -9 -10z"/>
<path d="M4753 20993 c-7 -2 -13 -9 -13 -15 0 -6 6 -6 15 2 8 7 21 10 30 7 8
-4 16 -3 19 1 5 9 -33 12 -51 5z"/>
<path d="M4819 20983 c-13 -16 -12 -17 4 -4 9 7 17 15 17 17 0 8 -8 3 -21 -13z"/>
<path d="M4845 20980 c-3 -5 -1 -10 4 -10 6 0 11 5 11 10 0 6 -2 10 -4 10 -3
0 -8 -4 -11 -10z"/>
<path d="M58425 20960 c-19 -8 -19 -9 2 -9 12 -1 25 4 28 9 7 12 -2 12 -30 0z"/>
<path d="M4887 20953 c-4 -3 1 -15 10 -26 15 -17 15 -19 2 -15 -9 4 -16 1 -16
-6 0 -7 10 -11 21 -10 12 1 25 3 30 3 5 1 -3 12 -17 25 -17 16 -22 26 -14 29
7 3 7 6 1 6 -6 1 -14 -2 -17 -6z"/>
<path d="M4941 20931 c-9 -6 -6 -8 13 -8 14 0 23 3 20 8 -7 11 -15 11 -33 0z"/>
<path d="M4997 20929 c7 -7 15 -10 18 -7 3 3 -2 9 -12 12 -14 6 -15 5 -6 -5z"/>
<path d="M4954 20903 c3 -4 31 -7 61 -8 72 -3 62 7 -11 11 -31 2 -53 0 -50 -3z"/>
<path d="M4113 20850 c0 -25 2 -35 4 -22 2 12 2 32 0 45 -2 12 -4 2 -4 -23z"/>
<path d="M4873 20873 c-7 -3 -13 -8 -13 -13 0 -11 28 -21 34 -12 7 12 -8 29
-21 25z"/>
<path d="M5066 20872 c-2 -4 3 -8 12 -9 46 -4 62 -8 66 -20 6 -15 32 -17 40
-4 4 5 -3 7 -14 4 -15 -4 -18 -1 -15 16 3 18 1 20 -16 11 -13 -7 -19 -7 -19 0
0 12 -46 14 -54 2z"/>
<path d="M5206 20835 c4 -8 11 -15 16 -15 6 0 5 6 -2 15 -7 8 -14 15 -16 15
-2 0 -1 -7 2 -15z"/>
<path d="M4805 20820 c-3 -5 3 -10 15 -10 12 0 18 5 15 10 -3 6 -10 10 -15 10
-5 0 -12 -4 -15 -10z"/>
<path d="M5050 20810 c-23 -7 -23 -8 -3 -9 12 -1 25 4 28 9 3 6 5 10 3 9 -2
-1 -14 -5 -28 -9z"/>
<path d="M5285 20790 c4 -6 11 -8 16 -5 14 9 11 15 -7 15 -8 0 -12 -5 -9 -10z"/>
<path d="M5350 20783 c8 -3 18 -10 21 -16 4 -5 13 -6 20 -2 9 6 8 10 -7 16
-10 4 -26 8 -34 8 -13 -1 -13 -1 0 -6z"/>
<path d="M5183 20690 c0 -25 2 -35 4 -22 2 12 2 32 0 45 -2 12 -4 2 -4 -23z"/>
<path d="M41416 20637 c3 -9 10 -17 15 -17 4 0 6 -7 3 -15 -4 -8 -4 -15 -1
-15 15 0 13 31 -4 46 -18 16 -19 16 -13 1z"/>
<path d="M4700 20585 c-10 -12 -10 -15 4 -15 9 0 16 7 16 15 0 8 -2 15 -4 15
-2 0 -9 -7 -16 -15z"/>
<path d="M41450 20596 c0 -2 7 -7 16 -10 8 -3 12 -2 9 4 -6 10 -25 14 -25 6z"/>
<path d="M41496 20578 c3 -5 10 -6 15 -3 13 9 11 12 -6 12 -8 0 -12 -4 -9 -9z"/>
<path d="M5183 20525 c0 -22 2 -30 4 -17 2 12 2 30 0 40 -3 9 -5 -1 -4 -23z"/>
<path d="M41529 20558 c-5 -18 -6 -38 -1 -34 7 8 12 36 6 36 -2 0 -4 -1 -5 -2z"/>
<path d="M41560 20500 c-8 -5 -10 -10 -5 -10 6 0 17 5 25 10 8 5 11 10 5 10
-5 0 -17 -5 -25 -10z"/>
<path d="M41597 20397 c-4 -11 0 -13 14 -10 10 3 19 0 19 -6 0 -6 7 -11 15
-11 21 0 19 16 -2 24 -10 3 -23 8 -29 11 -6 3 -14 -1 -17 -8z"/>
<path d="M4460 20265 c-10 -12 -10 -15 4 -15 9 0 16 7 16 15 0 8 -2 15 -4 15
-2 0 -9 -7 -16 -15z"/>
<path d="M4380 20185 c-10 -12 -10 -15 4 -15 9 0 16 7 16 15 0 8 -2 15 -4 15
-2 0 -9 -7 -16 -15z"/>
<path d="M4120 19571 c0 -30 4 -40 20 -44 18 -5 20 0 20 39 0 37 -3 44 -20 44
-17 0 -20 -7 -20 -39z"/>
<path d="M39010 19517 c-3 -2 -66 -7 -140 -11 -565 -28 -1328 -142 -2050 -307
-1588 -364 -3337 -986 -5526 -1967 -324 -145 -507 -230 -1089 -502 -44 -21
-300 -142 -570 -270 -1738 -824 -2243 -1061 -2980 -1395 -93 -42 -213 -96
-266 -120 -750 -341 -1819 -789 -2539 -1065 -146 -56 -270 -107 -276 -113 -6
-7 -23 -61 -39 -122 -180 -717 -518 -1439 -954 -2037 -334 -459 -789 -921
-1245 -1260 -907 -677 -2023 -1108 -3216 -1242 -331 -37 -410 -41 -895 -41
-524 0 -661 8 -1070 61 -2234 290 -4407 1430 -6000 3149 -71 77 -134 143 -140
146 -5 4 -91 16 -190 28 -3633 444 -6892 1439 -9618 2938 -104 56 -191 103
-195 103 -4 0 -6 -1158 -4 -2573 l2 -2573 58 -28 c111 -55 570 -259 792 -353
1044 -441 2164 -822 3320 -1132 1894 -506 3953 -843 6115 -1001 154 -11 309
-22 345 -25 132 -9 367 -23 525 -30 66 -3 156 -8 200 -10 536 -30 1328 -45
2210 -40 473 3 880 7 905 9 25 2 164 6 310 10 146 4 301 9 345 11 44 3 143 7
220 10 130 5 197 8 415 20 47 3 135 7 195 10 61 3 142 7 180 10 39 3 111 7
160 10 50 3 119 7 155 10 36 3 101 7 145 10 147 9 416 29 545 40 30 3 111 9
180 15 702 59 1280 131 1890 236 1419 244 2971 669 4525 1237 300 110 344 127
600 225 1228 472 2547 1051 4115 1804 492 237 832 404 2025 996 2130 1056
2600 1285 3345 1629 3184 1469 5749 2254 7688 2351 270 13 1002 4 1032 -13 3
-1 41 -6 85 -9 133 -12 414 -54 566 -86 830 -175 1443 -503 2071 -1109 239
-230 455 -478 909 -1046 412 -516 508 -627 748 -865 358 -357 683 -589 1063
-762 654 -295 1363 -331 2190 -108 421 114 917 312 1813 725 859 396 1166 525
1570 662 582 196 1108 275 1730 260 300 -8 480 -22 1045 -82 124 -13 259 -27
300 -30 41 -4 120 -10 175 -15 109 -9 859 -5 940 5 28 3 122 15 210 26 527 64
1081 194 1655 388 365 123 377 128 384 162 3 17 6 852 6 1855 l0 1825 -22 -12
c-13 -7 -50 -29 -83 -49 -34 -21 -139 -82 -235 -137 -1513 -866 -3018 -1383
-4285 -1472 -525 -37 -821 -19 -1660 99 -706 99 -862 114 -1255 114 -498 1
-851 -48 -1310 -179 -408 -118 -708 -235 -1772 -693 -1155 -498 -1739 -663
-2373 -671 -836 -11 -1585 318 -2297 1007 -221 214 -392 413 -813 942 -450
566 -612 755 -875 1024 -335 342 -657 598 -1000 796 -534 306 -1185 498 -1955
576 -151 15 -1052 33 -1065 21z m10657 -7223 c-3 -3 -12 -4 -19 -1 -8 3 -5 6
6 6 11 1 17 -2 13 -5z m-394 -31 c-34 -2 -93 -2 -130 0 -37 2 -9 3 62 3 72 0
102 -1 68 -3z"/>
<path d="M42330 19419 c0 -5 5 -7 10 -4 6 3 10 8 10 11 0 2 -4 4 -10 4 -5 0
-10 -5 -10 -11z"/>
<path d="M43080 18539 c0 -5 5 -7 10 -4 6 3 10 8 10 11 0 2 -4 4 -10 4 -5 0
-10 -5 -10 -11z"/>
<path d="M43180 18386 c0 -2 7 -6 15 -10 8 -3 15 -1 15 4 0 6 -7 10 -15 10 -8
0 -15 -2 -15 -4z"/>
<path d="M43249 18368 c-9 -18 -3 -44 10 -45 11 -1 17 7 18 20 0 12 -1 16 -4
10 -3 -7 -9 -13 -15 -13 -6 0 -8 7 -4 15 4 12 0 23 -5 13z"/>
<path d="M43198 18353 c7 -3 16 -2 19 1 4 3 -2 6 -13 5 -11 0 -14 -3 -6 -6z"/>
<path d="M43312 18296 c-1 -17 1 -18 8 -6 9 14 14 7 11 -13 -1 -5 3 -6 9 -2 8
5 8 11 1 19 -6 7 -9 15 -6 18 3 2 -1 5 -8 5 -7 0 -14 -10 -15 -21z"/>
</g>
</svg>
